<?xml version="1.0" standalone="no"?>
<!DOCTYPE svg PUBLIC "-//W3C//DTD SVG 20010904//EN"
 "http://www.w3.org/TR/2001/REC-SVG-20010904/DTD/svg10.dtd">
<svg version="1.0" xmlns="http://www.w3.org/2000/svg"
 width="512.000000pt" height="512.000000pt" viewBox="0 0 512.000000 512.000000"
 preserveAspectRatio="xMidYMid meet">

<g transform="translate(0.000000,512.000000) scale(0.100000,-0.100000)"
fill="#000000" stroke="none">
<path d="M320 4947 c-19 -6 -58 -34 -85 -62 -71 -70 -91 -146 -63 -237 14 -48
76 -121 118 -138 l30 -12 0 -186 0 -186 183 -183 183 -183 456 0 457 0 26 -83
c14 -46 25 -87 25 -93 0 -5 -25 -34 -55 -64 l-54 -53 -109 32 c-135 39 -143
36 -209 -65 l-48 -74 -156 0 -157 0 -12 30 c-28 68 -129 130 -210 130 -124 0
-240 -116 -240 -240 0 -124 116 -240 240 -240 81 0 182 62 210 130 l12 30 119
0 119 0 0 -26 c0 -20 20 -46 85 -108 l84 -81 -20 -75 -21 -75 -106 -25 c-117
-27 -152 -49 -152 -97 0 -15 -3 -38 -6 -50 -6 -23 -9 -23 -174 -23 l-168 0
-12 30 c-28 68 -129 130 -210 130 -124 0 -240 -116 -240 -240 0 -124 116 -240
240 -240 81 0 182 62 210 130 l12 30 168 0 c165 0 168 0 174 -22 3 -13 6 -36
6 -51 0 -48 35 -70 152 -97 l106 -25 21 -75 20 -75 -84 -81 c-65 -62 -85 -88
-85 -108 l0 -26 -119 0 -119 0 -12 30 c-28 68 -129 130 -210 130 -124 0 -240
-116 -240 -240 0 -124 116 -240 240 -240 81 0 182 62 210 130 l12 30 157 0
158 0 46 -73 c65 -102 74 -105 209 -66 l109 32 54 -53 c30 -30 55 -59 55 -64
0 -6 -11 -47 -25 -93 l-26 -83 -457 0 -456 0 -183 -183 -183 -183 0 -186 0
-186 -30 -12 c-68 -28 -130 -129 -130 -210 0 -124 116 -240 240 -240 124 0
240 116 240 240 0 81 -62 182 -130 210 l-30 12 0 152 0 151 138 138 137 137
480 0 480 1 102 -53 103 -53 0 -170 0 -170 -138 -138 -137 -137 -71 0 c-70 0
-72 1 -84 30 -28 68 -129 130 -210 130 -124 0 -240 -116 -240 -240 0 -124 116
-240 240 -240 81 0 182 62 210 130 l12 30 106 0 106 0 183 183 183 183 0 265
0 265 28 26 27 26 75 -20 76 -20 22 -102 c13 -55 30 -111 38 -123 14 -22 24
-26 97 -38 l37 -6 0 -168 0 -169 -30 -12 c-42 -17 -104 -90 -118 -138 -28 -91
-8 -167 63 -237 102 -103 243 -101 338 5 63 70 81 146 55 232 -14 48 -76 121
-118 138 l-30 12 0 168 c0 165 0 168 23 174 12 3 35 6 50 6 48 0 70 35 97 152
l25 106 75 20 75 20 28 -26 27 -26 0 -265 0 -265 183 -183 183 -183 106 0 106
0 12 -30 c28 -68 129 -130 210 -130 124 0 240 116 240 240 0 125 -114 240
-238 240 -83 0 -184 -62 -212 -130 -12 -29 -14 -30 -84 -30 l-71 0 -138 138
-137 137 0 172 c0 163 1 172 20 178 11 3 56 26 100 51 l80 44 483 0 482 0 138
-138 137 -137 0 -151 0 -152 -30 -12 c-68 -28 -130 -129 -130 -210 0 -124 116
-240 240 -240 124 0 240 116 240 240 0 81 -62 182 -130 210 l-30 12 0 186 0
186 -183 183 -183 183 -456 0 -457 0 -26 83 c-14 46 -25 87 -25 93 0 5 25 34
55 64 l54 53 109 -32 c135 -39 144 -36 209 66 l46 73 158 0 157 0 12 -30 c28
-68 129 -130 210 -130 124 0 240 116 240 240 0 125 -114 240 -238 240 -83 0
-184 -62 -212 -130 l-12 -30 -119 0 -119 0 0 26 c0 20 -20 46 -85 108 l-84 81
20 75 21 75 106 25 c117 27 152 49 152 97 0 15 3 38 6 51 6 22 9 22 174 22
l168 0 12 -30 c28 -68 129 -130 210 -130 124 0 240 116 240 240 0 124 -116
240 -240 240 -81 0 -182 -62 -210 -130 l-12 -30 -168 0 c-165 0 -168 0 -174
23 -3 12 -6 35 -6 50 0 48 -35 70 -152 97 l-106 25 -21 75 -20 75 84 81 c65
62 85 88 85 108 l0 26 119 0 119 0 12 -30 c28 -68 129 -130 210 -130 124 0
240 116 240 240 0 124 -116 240 -240 240 -81 0 -182 -62 -210 -130 l-12 -30
-157 0 -158 0 -46 73 c-65 102 -74 105 -209 66 l-109 -32 -54 53 c-30 30 -55
59 -55 64 0 6 11 47 25 93 l26 83 457 0 456 0 183 183 183 183 0 186 0 186 30
12 c68 28 130 129 130 210 0 125 -114 240 -238 240 -126 0 -242 -115 -242
-240 0 -81 62 -182 130 -210 l30 -12 0 -152 0 -151 -138 -138 -137 -137 -482
0 -483 0 -80 44 c-44 25 -89 48 -100 51 -19 6 -20 15 -20 178 l0 172 138 138
137 137 71 0 c70 0 72 -1 84 -30 28 -68 129 -130 210 -130 124 0 240 116 240
240 0 125 -114 240 -238 240 -83 0 -184 -62 -212 -130 l-12 -30 -106 0 -106 0
-183 -183 -183 -183 0 -265 0 -265 -27 -26 -28 -26 -75 20 -76 20 -22 102
c-13 55 -30 111 -38 123 -14 22 -24 26 -96 38 l-38 6 0 168 0 169 30 12 c68
28 130 129 130 210 0 125 -114 240 -238 240 -126 0 -242 -115 -242 -240 0 -81
62 -182 130 -210 l30 -12 0 -169 0 -168 -37 -6 c-73 -12 -83 -16 -97 -38 -8
-12 -25 -68 -38 -123 l-22 -102 -76 -20 -75 -20 -27 26 -28 26 0 265 0 265
-183 183 -183 183 -106 0 -106 0 -12 30 c-28 68 -129 130 -210 130 -124 0
-240 -116 -240 -240 0 -124 116 -240 240 -240 81 0 182 62 210 130 12 29 14
30 84 30 l71 0 138 -138 137 -137 0 -170 0 -170 -103 -53 -102 -53 -480 1
-480 0 -138 138 -137 137 0 151 0 152 30 12 c42 17 104 90 118 138 26 86 8
162 -55 232 -65 72 -158 97 -253 67z m135 -172 c50 -49 15 -135 -55 -135 -41
0 -80 39 -80 80 0 41 39 80 80 80 19 0 40 -9 55 -25z m880 0 c50 -49 15 -135
-55 -135 -41 0 -80 39 -80 80 0 41 39 80 80 80 19 0 40 -9 55 -25z m1280 0
c16 -15 25 -36 25 -55 0 -19 -9 -40 -25 -55 -49 -50 -135 -15 -135 55 0 41 39
80 80 80 19 0 40 -9 55 -25z m1280 0 c16 -15 25 -36 25 -55 0 -19 -9 -40 -25
-55 -15 -16 -36 -25 -55 -25 -19 0 -40 9 -55 25 -16 15 -25 36 -25 55 0 19 9
40 25 55 15 16 36 25 55 25 19 0 40 -9 55 -25z m880 0 c16 -15 25 -36 25 -55
0 -19 -9 -40 -25 -55 -15 -16 -36 -25 -55 -25 -19 0 -40 9 -55 25 -16 15 -25
36 -25 55 0 19 9 40 25 55 15 16 36 25 55 25 19 0 40 -9 55 -25z m-2111 -852
c41 -178 23 -159 188 -204 194 -53 178 -55 272 44 l81 85 70 -40 c39 -23 72
-43 74 -44 2 -2 -11 -53 -29 -112 -24 -83 -30 -114 -22 -128 13 -25 201 -213
226 -226 14 -8 45 -2 128 22 59 18 110 31 112 29 1 -2 21 -35 44 -74 l40 -70
-85 -81 c-99 -94 -97 -78 -44 -272 45 -165 26 -147 204 -188 l77 -18 0 -86 0
-87 -107 -24 c-113 -25 -138 -40 -148 -86 -4 -16 -18 -68 -32 -118 -47 -163
-49 -156 50 -249 l85 -81 -40 -70 c-23 -38 -43 -72 -44 -74 -2 -2 -53 11 -112
29 -83 24 -114 30 -128 22 -25 -13 -213 -201 -226 -226 -8 -14 -2 -45 22 -128
18 -59 31 -110 29 -112 -2 -1 -35 -21 -74 -44 l-70 -40 -81 85 c-93 99 -86 97
-249 50 -49 -14 -102 -28 -118 -32 -46 -10 -61 -35 -86 -148 l-24 -107 -87 0
-87 0 -24 107 c-25 113 -40 138 -86 148 -16 4 -68 18 -118 32 -163 47 -156 49
-249 -50 l-81 -85 -70 40 c-38 23 -72 43 -74 44 -2 2 11 53 29 112 24 83 30
114 22 128 -13 25 -201 213 -226 226 -14 8 -45 2 -128 -22 -59 -18 -110 -31
-112 -29 -1 2 -21 35 -43 74 l-41 70 85 81 c99 94 97 78 44 272 -45 165 -26
147 -203 188 l-78 18 0 86 0 86 78 18 c177 41 158 23 203 188 53 194 55 178
-44 272 l-85 81 41 70 c22 39 42 72 43 74 2 2 53 -11 112 -29 83 -24 114 -30
128 -22 25 13 213 201 226 226 8 14 2 45 -22 128 -18 59 -31 110 -29 112 2 1
36 21 74 44 l70 40 81 -85 c94 -99 78 -97 272 -44 165 45 147 26 188 204 l18
77 86 0 86 0 18 -77z m-1969 -588 c50 -49 15 -135 -55 -135 -41 0 -80 39 -80
80 0 41 39 80 80 80 19 0 40 -9 55 -25z m3840 0 c16 -15 25 -36 25 -55 0 -19
-9 -40 -25 -55 -15 -16 -36 -25 -55 -25 -19 0 -40 9 -55 25 -16 15 -25 36 -25
55 0 19 9 40 25 55 15 16 36 25 55 25 19 0 40 -9 55 -25z m-4080 -720 c50 -49
15 -135 -55 -135 -41 0 -80 39 -80 80 0 41 39 80 80 80 19 0 40 -9 55 -25z
m4320 0 c50 -49 15 -135 -55 -135 -41 0 -80 39 -80 80 0 19 9 40 25 55 15 16
36 25 55 25 19 0 40 -9 55 -25z m-4080 -720 c16 -15 25 -36 25 -55 0 -19 -9
-40 -25 -55 -49 -50 -135 -15 -135 55 0 41 39 80 80 80 19 0 40 -9 55 -25z
m3840 0 c50 -49 15 -135 -55 -135 -41 0 -80 39 -80 80 0 41 39 80 80 80 19 0
40 -9 55 -25z m-4080 -1440 c16 -15 25 -36 25 -55 0 -19 -9 -40 -25 -55 -15
-16 -36 -25 -55 -25 -19 0 -40 9 -55 25 -16 15 -25 36 -25 55 0 19 9 40 25 55
15 16 36 25 55 25 19 0 40 -9 55 -25z m880 0 c50 -49 15 -135 -55 -135 -41 0
-80 39 -80 80 0 41 39 80 80 80 19 0 40 -9 55 -25z m1280 0 c50 -49 15 -135
-55 -135 -19 0 -40 9 -55 25 -50 49 -15 135 55 135 19 0 40 -9 55 -25z m1280
0 c50 -49 15 -135 -55 -135 -41 0 -80 39 -80 80 0 41 39 80 80 80 19 0 40 -9
55 -25z m880 0 c50 -49 15 -135 -55 -135 -41 0 -80 39 -80 80 0 41 39 80 80
80 19 0 40 -9 55 -25z"/>
<path d="M2338 3425 c-250 -34 -430 -120 -479 -229 -17 -38 -19 -80 -19 -676
0 -717 -3 -681 79 -752 259 -221 1022 -223 1280 -2 85 73 81 35 81 754 0 719
4 681 -81 754 -153 131 -526 196 -861 151z m407 -156 c161 -20 341 -84 366
-131 22 -42 -47 -90 -191 -131 -268 -78 -660 -54 -853 51 -84 45 -84 79 0 125
61 32 205 74 298 86 102 12 277 13 380 0z m-555 -424 c265 -70 642 -53 869 39
l61 25 0 -100 c0 -111 -5 -121 -79 -158 -232 -119 -730 -119 -962 0 -74 37
-79 47 -79 159 l0 100 53 -22 c28 -11 90 -31 137 -43z m0 -400 c265 -70 642
-53 869 39 l61 25 0 -100 c0 -111 -5 -121 -79 -158 -232 -119 -730 -119 -962
0 -74 37 -79 47 -79 159 l0 100 53 -22 c28 -11 90 -31 137 -43z m0 -400 c265
-70 642 -53 869 39 l61 25 0 -100 c0 -111 -5 -121 -79 -158 -232 -119 -730
-119 -962 0 -74 37 -79 47 -79 159 l0 100 53 -22 c28 -11 90 -31 137 -43z"/>
</g>
</svg>
